<svg version="1.1" xmlns="http://www.w3.org/2000/svg" viewBox="0 0 884.9081199792292 535.1072226952062" width="1769.8162399584585" height="1070.2144453904125">
  <!-- svg-source:excalidraw -->
  
  <defs>
    <style class="style-fonts">
      @font-face {
        font-family: "Virgil";
        src: url("https://excalidraw.com/Virgil.woff2");
      }
      @font-face {
        font-family: "Cascadia";
        src: url("https://excalidraw.com/Cascadia.woff2");
      }
    </style>
    
  </defs>
  <g stroke-linecap="round" transform="translate(10 87.20870823624568) rotate(0 53.520015529641455 44.38705722162854)"><path d="M22.19 0 M22.19 0 C44.07 -1.34, 64.08 2.26, 84.85 0 M22.19 0 C40.32 -0.07, 58.96 0.35, 84.85 0 M84.85 0 C101.4 -1.41, 105.56 7.87, 107.04 22.19 M84.85 0 C97.7 1.37, 109.32 7.29, 107.04 22.19 M107.04 22.19 C108.63 37.89, 109.13 55.01, 107.04 66.58 M107.04 22.19 C106.88 38.21, 107.89 52.88, 107.04 66.58 M107.04 66.58 C106.99 80.82, 97.84 90.58, 84.85 88.77 M107.04 66.58 C106.5 79.87, 99.18 86.96, 84.85 88.77 M84.85 88.77 C65.69 87.35, 46.76 90.43, 22.19 88.77 M84.85 88.77 C66.29 87.75, 46.72 89.19, 22.19 88.77 M22.19 88.77 C6.78 89.48, 0.17 79.7, 0 66.58 M22.19 88.77 C5.72 89.98, -0.84 83.65, 0 66.58 M0 66.58 C0.89 52.75, 1.42 39.23, 0 22.19 M0 66.58 C-0.23 57.99, -0.5 48.01, 0 22.19 M0 22.19 C0.98 9.23, 6.07 0.61, 22.19 0 M0 22.19 C1.14 9.51, 7.67 -1.14, 22.19 0" stroke="#1e1e1e" stroke-width="1" fill="none"></path></g><g transform="translate(37.890041164406966 106.59576545787445) rotate(0 25.629974365234375 25)"><text x="25.629974365234375" y="0" font-family="Virgil, Segoe UI Emoji" font-size="20px" fill="#1e1e1e" text-anchor="middle" style="white-space: pre;" direction="ltr" dominant-baseline="text-before-edge">API</text><text x="25.629974365234375" y="25" font-family="Virgil, Segoe UI Emoji" font-size="20px" fill="#1e1e1e" text-anchor="middle" style="white-space: pre;" direction="ltr" dominant-baseline="text-before-edge">client</text></g><g stroke-linecap="round" transform="translate(201.8614511818878 87.18257466205864) rotate(0 59.619073317078914 50.03347656653227)"><path d="M25.02 0 M25.02 0 C38.94 0.84, 55.12 -0.03, 94.22 0 M25.02 0 C52.88 -0.17, 79.66 0.25, 94.22 0 M94.22 0 C111.41 0.37, 117.86 10.03, 119.24 25.02 M94.22 0 C110.53 -0.32, 120.14 8.3, 119.24 25.02 M119.24 25.02 C121.13 43.05, 121.15 62.41, 119.24 75.05 M119.24 25.02 C119.89 37.34, 118.85 52.06, 119.24 75.05 M119.24 75.05 C118.01 91.36, 112.58 100.92, 94.22 100.07 M119.24 75.05 C119.47 92.62, 109.3 98.38, 94.22 100.07 M94.22 100.07 C78.36 100.49, 64.11 98.58, 25.02 100.07 M94.22 100.07 C70.6 100.29, 48.25 100.75, 25.02 100.07 M25.02 100.07 C9.53 99.91, -1.33 90.19, 0 75.05 M25.02 100.07 C6.88 101.3, -1.01 90.71, 0 75.05 M0 75.05 C-0.97 58.89, 1.32 45.99, 0 25.02 M0 75.05 C0.57 64.37, -0.32 51.88, 0 25.02 M0 25.02 C-0.57 10.24, 8.1 1.43, 25.02 0 M0 25.02 C-0.7 9.59, 10.46 1.5, 25.02 0" stroke="#1e1e1e" stroke-width="1" fill="none"></path></g><g transform="translate(222.540560204533 124.7160512285916) rotate(0 38.939964294433594 12.5)"><text x="38.939964294433594" y="0" font-family="Virgil, Segoe UI Emoji" font-size="20px" fill="#1e1e1e" text-anchor="middle" style="white-space: pre;" direction="ltr" dominant-baseline="text-before-edge">HaProxy</text></g><g stroke-linecap="round" transform="translate(423.42086069980246 10) rotate(0 42.05378199239658 37.65258559162305)"><path d="M18.83 0 M18.83 0 C30.08 -0.18, 43.7 -1.09, 65.28 0 M18.83 0 C36.33 0.23, 52.23 -0.35, 65.28 0 M65.28 0 C78.52 0.16, 82.21 7.92, 84.11 18.83 M65.28 0 C76.33 0.16, 86.33 6.21, 84.11 18.83 M84.11 18.83 C83.44 31.03, 84.23 43.46, 84.11 56.48 M84.11 18.83 C83.85 30.52, 83.29 43.05, 84.11 56.48 M84.11 56.48 C84.03 70.32, 75.85 75.84, 65.28 75.31 M84.11 56.48 C85 68.36, 79.73 77.6, 65.28 75.31 M65.28 75.31 C52.1 73.73, 39.91 76.67, 18.83 75.31 M65.28 75.31 C55.41 74.4, 43.76 75.91, 18.83 75.31 M18.83 75.31 C4.64 74.18, 1.63 69.41, 0 56.48 M18.83 75.31 C4.49 73.78, -1.18 71.13, 0 56.48 M0 56.48 C0.42 45.74, 0.49 32.11, 0 18.83 M0 56.48 C0.41 40.47, 1.03 27.17, 0 18.83 M0 18.83 C0.72 5.35, 7.31 1.93, 18.83 0 M0 18.83 C-1.4 4.72, 7.98 -0.41, 18.83 0" stroke="#1e1e1e" stroke-width="1" fill="none"></path></g><g transform="translate(441.07467168389826 35.15258559162294) rotate(0 24.39997100830078 12.5)"><text x="24.39997100830078" y="0" font-family="Virgil, Segoe UI Emoji" font-size="20px" fill="#1e1e1e" text-anchor="middle" style="white-space: pre;" direction="ltr" dominant-baseline="text-before-edge">uwsgi</text></g><g stroke-linecap="round" transform="translate(424.4394081400485 102.03800338294718) rotate(0 43.16065659347623 36.45753685666864)"><path d="M18.23 0 M18.23 0 C38.5 -0.89, 56.46 -0.5, 68.09 0 M18.23 0 C36.52 1.06, 53.58 0.09, 68.09 0 M68.09 0 C81.33 -1.64, 85.2 7.71, 86.32 18.23 M68.09 0 C80.68 -1.78, 84.79 4.9, 86.32 18.23 M86.32 18.23 C87.21 33.24, 88.36 47.58, 86.32 54.69 M86.32 18.23 C86.4 31.01, 85.73 44.24, 86.32 54.69 M86.32 54.69 C87.92 67.56, 79.32 73.95, 68.09 72.92 M86.32 54.69 C88.54 65.44, 78.69 74.62, 68.09 72.92 M68.09 72.92 C53.18 73.49, 41.04 71.1, 18.23 72.92 M68.09 72.92 C53.23 72.13, 37.04 72.05, 18.23 72.92 M18.23 72.92 C7.96 71.85, 1.49 67.59, 0 54.69 M18.23 72.92 C7.43 73.4, -0.96 68.58, 0 54.69 M0 54.69 C1.77 41.56, -1.49 32.24, 0 18.23 M0 54.69 C0.92 46.6, -0.07 39.5, 0 18.23 M0 18.23 C0.17 5.27, 7.17 -1.26, 18.23 0 M0 18.23 C1.5 6.83, 7.3 1.45, 18.23 0" stroke="#1e1e1e" stroke-width="1" fill="none"></path></g><g transform="translate(443.20009372522395 125.99554023961605) rotate(0 24.39997100830078 12.5)"><text x="24.39997100830078" y="0" font-family="Virgil, Segoe UI Emoji" font-size="20px" fill="#1e1e1e" text-anchor="middle" style="white-space: pre;" direction="ltr" dominant-baseline="text-before-edge">uwsgi</text></g><g stroke-linecap="round" transform="translate(425.66717403887355 189.93139399830056) rotate(0 43.16065659347623 36.45753685666864)"><path d="M18.23 0 M18.23 0 C38.54 1.66, 56.98 -1.12, 68.09 0 M18.23 0 C35.51 0.73, 52.49 -0.89, 68.09 0 M68.09 0 C82.01 -1.28, 87.22 5.16, 86.32 18.23 M68.09 0 C81.34 1.34, 88.55 5.54, 86.32 18.23 M86.32 18.23 C86.5 29.53, 86.88 41.65, 86.32 54.69 M86.32 18.23 C87.19 30.43, 86.34 43.67, 86.32 54.69 M86.32 54.69 C87.9 65.61, 78.93 71.7, 68.09 72.92 M86.32 54.69 C85.89 68.39, 81.06 72.24, 68.09 72.92 M68.09 72.92 C51.22 73.64, 34.6 74.09, 18.23 72.92 M68.09 72.92 C51.32 73.83, 32.99 74.19, 18.23 72.92 M18.23 72.92 C5.01 71.72, -0.61 67.46, 0 54.69 M18.23 72.92 C7.75 72.75, -1.82 64.76, 0 54.69 M0 54.69 C-1.22 41.83, 1.11 24.02, 0 18.23 M0 54.69 C0.25 46.82, -0.11 39.81, 0 18.23 M0 18.23 C-0.58 7.01, 5.89 -1.53, 18.23 0 M0 18.23 C0 8.14, 7.17 1.85, 18.23 0" stroke="#1e1e1e" stroke-width="1" fill="none"></path></g><g transform="translate(444.427859624049 213.88893085496943) rotate(0 24.39997100830078 12.5)"><text x="24.39997100830078" y="0" font-family="Virgil, Segoe UI Emoji" font-size="20px" fill="#1e1e1e" text-anchor="middle" style="white-space: pre;" direction="ltr" dominant-baseline="text-before-edge">uwsgi</text></g><g stroke-linecap="round" transform="translate(287.2300499978701 315.16706590392573) rotate(0 53.41349346336244 40.8688756140989)"><path d="M20.43 0 M20.43 0 C37.32 1.65, 52.82 -1.38, 86.39 0 M20.43 0 C34.28 -0.89, 48.88 0.28, 86.39 0 M86.39 0 C98.17 -1.86, 107.38 5.3, 106.83 20.43 M86.39 0 C100.81 -0.75, 106.8 7.29, 106.83 20.43 M106.83 20.43 C105.49 31.5, 108.81 43.52, 106.83 61.3 M106.83 20.43 C106.41 35.17, 106.33 51.52, 106.83 61.3 M106.83 61.3 C105.98 73.83, 100.33 81.76, 86.39 81.74 M106.83 61.3 C107.43 76, 101.49 82.8, 86.39 81.74 M86.39 81.74 C65.86 81.8, 46.61 82.35, 20.43 81.74 M86.39 81.74 C63.04 82.33, 38.78 82.37, 20.43 81.74 M20.43 81.74 C5.27 81.04, 1.65 76.67, 0 61.3 M20.43 81.74 C6.78 82.17, 1.99 73.08, 0 61.3 M0 61.3 C1.62 47.2, -0.78 33.36, 0 20.43 M0 61.3 C-0.54 47.81, 0 33.83, 0 20.43 M0 20.43 C0.88 5.15, 8.69 -1.89, 20.43 0 M0 20.43 C0.5 7.99, 7.23 0.58, 20.43 0" stroke="#1e1e1e" stroke-width="1" fill="none"></path></g><g transform="translate(313.5135614666035 331.03594151802486) rotate(0 27.129981994628906 25)"><text x="27.129981994628906" y="0" font-family="Virgil, Segoe UI Emoji" font-size="20px" fill="#1e1e1e" text-anchor="middle" style="white-space: pre;" direction="ltr" dominant-baseline="text-before-edge">read </text><text x="27.129981994628906" y="25" font-family="Virgil, Segoe UI Emoji" font-size="20px" fill="#1e1e1e" text-anchor="middle" style="white-space: pre;" direction="ltr" dominant-baseline="text-before-edge">model</text></g><g stroke-linecap="round" transform="translate(743.716706946065 67.82704778096354) rotate(0 65.5 34.5)"><path d="M17.25 0 M17.25 0 C56.28 -0.46, 93.91 0.27, 113.75 0 M17.25 0 C41.48 0.37, 66.27 0.43, 113.75 0 M113.75 0 C125.27 -1.55, 131.36 6.1, 131 17.25 M113.75 0 C124.34 -1.1, 130.41 5.45, 131 17.25 M131 17.25 C129.76 27.51, 129.41 36.46, 131 51.75 M131 17.25 C130.95 30.25, 130.34 43.52, 131 51.75 M131 51.75 C129.76 62.27, 126.12 68.11, 113.75 69 M131 51.75 C130.23 61.7, 123.03 68.59, 113.75 69 M113.75 69 C78.03 67.88, 39.16 67.05, 17.25 69 M113.75 69 C88.61 69.76, 62.25 70.57, 17.25 69 M17.25 69 C6.66 68.5, 1.36 63.01, 0 51.75 M17.25 69 C6.06 67.23, -1.34 62.22, 0 51.75 M0 51.75 C1.32 38.72, -0.13 23.39, 0 17.25 M0 51.75 C-1.13 40.34, -0.5 29.05, 0 17.25 M0 17.25 C1.65 4.12, 4.6 0.45, 17.25 0 M0 17.25 C-1.97 7.92, 6.64 -1.87, 17.25 0" stroke="#1e1e1e" stroke-width="1" fill="none"></path></g><g transform="translate(767.4567582155962 77.32704778096354) rotate(0 41.75994873046875 25)"><text x="41.75994873046875" y="0" font-family="Virgil, Segoe UI Emoji" font-size="20px" fill="#1e1e1e" text-anchor="middle" style="white-space: pre;" direction="ltr" dominant-baseline="text-before-edge">postgres</text><text x="41.75994873046875" y="25" font-family="Virgil, Segoe UI Emoji" font-size="20px" fill="#1e1e1e" text-anchor="middle" style="white-space: pre;" direction="ltr" dominant-baseline="text-before-edge">leader</text></g><g stroke-linecap="round" transform="translate(743.8553562837071 142.40904084947965) rotate(0 65.5 34.5)"><path d="M17.25 0 M17.25 0 C43.82 0.15, 74.19 0.77, 113.75 0 M17.25 0 C49.81 -0.76, 81.73 0.55, 113.75 0 M113.75 0 C125.08 0.87, 129.74 5.26, 131 17.25 M113.75 0 C124.3 1.67, 131.46 4.39, 131 17.25 M131 17.25 C130.39 27.43, 129.52 34.31, 131 51.75 M131 17.25 C131.13 26.5, 130.31 35.43, 131 51.75 M131 51.75 C129.13 61.6, 126.83 68.92, 113.75 69 M131 51.75 C129.29 64.48, 127.2 66.98, 113.75 69 M113.75 69 C77.22 67.91, 36.11 69.63, 17.25 69 M113.75 69 C83.57 68.76, 52.48 69.54, 17.25 69 M17.25 69 C6.65 68.51, 0.17 63.77, 0 51.75 M17.25 69 C4.19 69.29, -1.32 63.41, 0 51.75 M0 51.75 C-0.17 42.34, 0.77 30.7, 0 17.25 M0 51.75 C-0.59 44.52, -0.31 35.95, 0 17.25 M0 17.25 C-0.44 6.09, 6.02 0.5, 17.25 0 M0 17.25 C1.24 4.53, 6.44 0.88, 17.25 0" stroke="#1e1e1e" stroke-width="1" fill="none"></path></g><g transform="translate(767.5954075532384 151.90904084947965) rotate(0 41.75994873046875 25)"><text x="41.75994873046875" y="0" font-family="Virgil, Segoe UI Emoji" font-size="20px" fill="#1e1e1e" text-anchor="middle" style="white-space: pre;" direction="ltr" dominant-baseline="text-before-edge">postgres</text><text x="41.75994873046875" y="25" font-family="Virgil, Segoe UI Emoji" font-size="20px" fill="#1e1e1e" text-anchor="middle" style="white-space: pre;" direction="ltr" dominant-baseline="text-before-edge">follower</text></g><g stroke-linecap="round" transform="translate(743.9081199792292 218.58212726727584) rotate(0 65.5 34.5)"><path d="M17.25 0 M17.25 0 C51.66 -0.49, 84.24 -1.38, 113.75 0 M17.25 0 C52.32 -0.66, 88.24 0.31, 113.75 0 M113.75 0 C125.65 -1.19, 129.84 5.66, 131 17.25 M113.75 0 C124.01 -0.69, 133.1 4.06, 131 17.25 M131 17.25 C131.4 28.56, 131.19 37.89, 131 51.75 M131 17.25 C131.46 27.53, 129.94 38.43, 131 51.75 M131 51.75 C132.69 61.5, 127.19 67.11, 113.75 69 M131 51.75 C132.18 65.31, 123.43 67.85, 113.75 69 M113.75 69 C83.31 69.92, 54.9 68.28, 17.25 69 M113.75 69 C75.67 69.03, 36.73 68.89, 17.25 69 M17.25 69 C4.6 69.14, 0.35 63.17, 0 51.75 M17.25 69 C4.09 68.79, 1.78 64.11, 0 51.75 M0 51.75 C0.19 38.85, 1.35 27.55, 0 17.25 M0 51.75 C0.21 42.48, 0.61 32.17, 0 17.25 M0 17.25 C0.6 6.51, 5.18 -0.54, 17.25 0 M0 17.25 C1.11 7, 3.66 -1.82, 17.25 0" stroke="#1e1e1e" stroke-width="1" fill="none"></path></g><g transform="translate(767.6481712487605 228.08212726727584) rotate(0 41.75994873046875 25)"><text x="41.75994873046875" y="0" font-family="Virgil, Segoe UI Emoji" font-size="20px" fill="#1e1e1e" text-anchor="middle" style="white-space: pre;" direction="ltr" dominant-baseline="text-before-edge">postgres</text><text x="41.75994873046875" y="25" font-family="Virgil, Segoe UI Emoji" font-size="20px" fill="#1e1e1e" text-anchor="middle" style="white-space: pre;" direction="ltr" dominant-baseline="text-before-edge">follower</text></g><g stroke-linecap="round" transform="translate(567.9412960541438 452.19214898186897) rotate(0 43.16065659347623 36.45753685666864)"><path d="M18.23 0 M18.23 0 C32.45 0.01, 47.23 0.23, 68.09 0 M18.23 0 C33.12 -0.42, 49.44 0.81, 68.09 0 M68.09 0 C79.99 -0.51, 87.35 7.67, 86.32 18.23 M68.09 0 C82.07 -1.89, 85.88 4.78, 86.32 18.23 M86.32 18.23 C87.09 29.41, 86.61 36.9, 86.32 54.69 M86.32 18.23 C85.86 27.64, 86.63 37.57, 86.32 54.69 M86.32 54.69 C88.06 68.55, 79.61 74.74, 68.09 72.92 M86.32 54.69 C84.77 67.81, 78.85 73.59, 68.09 72.92 M68.09 72.92 C51.56 74.75, 30.82 73.04, 18.23 72.92 M68.09 72.92 C51.9 72.67, 33.06 73.34, 18.23 72.92 M18.23 72.92 C6.11 72.85, 1.45 65.93, 0 54.69 M18.23 72.92 C5.32 71.66, 0.65 64.79, 0 54.69 M0 54.69 C-0.31 44.68, -1.51 30.52, 0 18.23 M0 54.69 C0.08 40.44, -0.17 25.98, 0 18.23 M0 18.23 C-1.01 5.23, 4.14 1.99, 18.23 0 M0 18.23 C0.43 3.95, 7.44 2.08, 18.23 0" stroke="#1e1e1e" stroke-width="1" fill="none"></path></g><g transform="translate(583.5219813341434 476.14968583853783) rotate(0 27.579971313476562 12.5)"><text x="27.579971313476562" y="0" font-family="Virgil, Segoe UI Emoji" font-size="20px" fill="#1e1e1e" text-anchor="middle" style="white-space: pre;" direction="ltr" dominant-baseline="text-before-edge">celery</text></g><g stroke-linecap="round" transform="translate(10.083123177314746 182.66435794498534) rotate(0 53.520015529641455 44.38705722162854)"><path d="M22.19 0 M22.19 0 C37.78 -0.01, 56.92 0.69, 84.85 0 M22.19 0 C39.7 -0.84, 58.4 -0.35, 84.85 0 M84.85 0 C101.38 1.59, 107.31 6.16, 107.04 22.19 M84.85 0 C101.62 0.63, 106.43 5.54, 107.04 22.19 M107.04 22.19 C107.88 34.61, 108.01 49.21, 107.04 66.58 M107.04 22.19 C106.77 34.13, 107.47 44.58, 107.04 66.58 M107.04 66.58 C106.81 82.37, 99.1 88.06, 84.85 88.77 M107.04 66.58 C107.33 79.18, 97.76 90.8, 84.85 88.77 M84.85 88.77 C63.19 87.96, 44.2 90.47, 22.19 88.77 M84.85 88.77 C69.29 90.08, 53.87 89.04, 22.19 88.77 M22.19 88.77 C8.82 90.4, 1.47 80.96, 0 66.58 M22.19 88.77 C9.3 88.4, 1.57 81.23, 0 66.58 M0 66.58 C0.06 50.66, -0.65 35.98, 0 22.19 M0 66.58 C0.76 54.04, 0.55 40.47, 0 22.19 M0 22.19 C0.93 7.36, 8.61 -1.03, 22.19 0 M0 22.19 C-1.17 8.54, 6.38 0.41, 22.19 0" stroke="#1e1e1e" stroke-width="1" fill="none"></path></g><g transform="translate(27.393177769456088 202.0514151666141) rotate(0 36.2099609375 25)"><text x="36.2099609375" y="0" font-family="Virgil, Segoe UI Emoji" font-size="20px" fill="#1e1e1e" text-anchor="middle" style="white-space: pre;" direction="ltr" dominant-baseline="text-before-edge">browser</text><text x="36.2099609375" y="25" font-family="Virgil, Segoe UI Emoji" font-size="20px" fill="#1e1e1e" text-anchor="middle" style="white-space: pre;" direction="ltr" dominant-baseline="text-before-edge">client</text></g><g mask="url(#mask-Zk0wf9TD5xgYtJgCUis7P)" stroke-linecap="round"><g transform="translate(119.98641149998502 232.20087770611485) rotate(0 80.42773104628179 60.9394548818409)"><path d="M-0.47 1.15 C26.46 21.26, 134.44 99.79, 161.32 119.81 M1.49 0.71 C28.27 21.07, 133.92 101.37, 160.29 121.17" stroke="#1e1e1e" stroke-width="1" fill="none"></path></g><g transform="translate(119.98641149998502 232.20087770611485) rotate(0 80.42773104628179 60.9394548818409)"><path d="M30.25 9.28 C19.78 6.01, 14.13 4.22, -0.17 0.97 M27.84 8.6 C18.18 6.53, 8.95 3.03, 0.48 0.87" stroke="#1e1e1e" stroke-width="1" fill="none"></path></g><g transform="translate(119.98641149998502 232.20087770611485) rotate(0 80.42773104628179 60.9394548818409)"><path d="M18.12 25.83 C11.16 17.98, 8.91 11.56, -0.17 0.97 M15.71 25.15 C10.15 17.66, 4.92 8.69, 0.48 0.87" stroke="#1e1e1e" stroke-width="1" fill="none"></path></g><g transform="translate(119.98641149998502 232.20087770611485) rotate(0 80.42773104628179 60.9394548818409)"><path d="M133.53 112.09 C139.01 113.86, 149.43 116.88, 160.59 120.99 M131.12 111.42 C140.34 115.21, 150.08 117.39, 161.24 120.89" stroke="#1e1e1e" stroke-width="1" fill="none"></path></g><g transform="translate(119.98641149998502 232.20087770611485) rotate(0 80.42773104628179 60.9394548818409)"><path d="M145.91 95.72 C147.81 102.02, 154.77 109.62, 160.59 120.99 M143.49 95.05 C148.54 104.21, 154.2 111.79, 161.24 120.89" stroke="#1e1e1e" stroke-width="1" fill="none"></path></g></g><mask id="mask-Zk0wf9TD5xgYtJgCUis7P"><rect x="0" y="0" fill="#fff" width="381.46578415598765" height="452.3478480135948"></rect><rect x="141.67615581138466" y="279.77436285985505" fill="#000" width="118.09988403320312" height="25" opacity="1"></rect></mask><g transform="translate(141.67615581138466 279.77436285985505) rotate(0 58.737986734882156 13.365969728100936)"><text x="59.04994201660156" y="0" font-family="Virgil, Segoe UI Emoji" font-size="20px" fill="#1e1e1e" text-anchor="middle" style="white-space: pre;" direction="ltr" dominant-baseline="text-before-edge">web sockets</text></g><g stroke-linecap="round"><g transform="translate(121.5636297627741 129.13285015200722) rotate(0 39.964264217636696 5.889378253398718)"><path d="M0.5 -0.55 C13.4 1.52, 65.39 10.21, 78.33 12.33 M-0.7 1.77 C12.51 3.5, 67.1 9.15, 80.63 10.53" stroke="#c2255c" stroke-width="1" fill="none"></path></g><g transform="translate(121.5636297627741 129.13285015200722) rotate(0 39.964264217636696 5.889378253398718)"><path d="M50.61 16.52 C63.49 13.29, 74.14 13.47, 79 8.64 M51.77 17.95 C61.2 14.49, 73.51 11.66, 79.88 11.42" stroke="#c2255c" stroke-width="1" fill="none"></path></g><g transform="translate(121.5636297627741 129.13285015200722) rotate(0 39.964264217636696 5.889378253398718)"><path d="M52.72 -3.89 C64.78 0.56, 74.65 8.42, 79 8.64 M53.88 -2.46 C62.68 1.59, 74.21 6.25, 79.88 11.42" stroke="#c2255c" stroke-width="1" fill="none"></path></g></g><mask></mask><g stroke-linecap="round"><g stroke-opacity="0.5" fill-opacity="0.5" transform="translate(324.394192169249 142.76626473656756) rotate(0 47.42158558845665 -49.95144708215594)"><path d="M0 0 C15.81 -16.65, 79.04 -83.25, 94.84 -99.9 M0 0 C15.81 -16.65, 79.04 -83.25, 94.84 -99.9" stroke="#2f9e44" stroke-width="1" fill="none"></path></g><g stroke-opacity="0.5" fill-opacity="0.5" transform="translate(324.394192169249 142.76626473656756) rotate(0 47.42158558845665 -49.95144708215594)"><path d="M82.88 -72.39 C86.35 -80.39, 89.83 -88.39, 94.84 -99.9 M82.88 -72.39 C87.63 -83.32, 92.38 -94.24, 94.84 -99.9" stroke="#2f9e44" stroke-width="1" fill="none"></path></g><g stroke-opacity="0.5" fill-opacity="0.5" transform="translate(324.394192169249 142.76626473656756) rotate(0 47.42158558845665 -49.95144708215594)"><path d="M67.99 -86.52 C75.8 -90.41, 83.6 -94.3, 94.84 -99.9 M67.99 -86.52 C78.65 -91.83, 89.31 -97.15, 94.84 -99.9" stroke="#2f9e44" stroke-width="1" fill="none"></path></g></g><mask></mask><g stroke-linecap="round"><g stroke-opacity="0.5" fill-opacity="0.5" transform="translate(322.0995978160456 141.23238928208616) rotate(0 50.57347471942194 0.6892961125925012)"><path d="M0 0 C16.86 0.23, 84.29 1.15, 101.15 1.38 M0 0 C16.86 0.23, 84.29 1.15, 101.15 1.38" stroke="#2f9e44" stroke-width="1" fill="none"></path></g><g stroke-opacity="0.5" fill-opacity="0.5" transform="translate(322.0995978160456 141.23238928208616) rotate(0 50.57347471942194 0.6892961125925012)"><path d="M72.82 11.25 C84.06 7.34, 95.3 3.42, 101.15 1.38 M72.82 11.25 C82.61 7.84, 92.4 4.43, 101.15 1.38" stroke="#2f9e44" stroke-width="1" fill="none"></path></g><g stroke-opacity="0.5" fill-opacity="0.5" transform="translate(322.0995978160456 141.23238928208616) rotate(0 50.57347471942194 0.6892961125925012)"><path d="M73.1 -9.27 C84.23 -5.04, 95.35 -0.82, 101.15 1.38 M73.1 -9.27 C82.79 -5.59, 92.48 -1.91, 101.15 1.38" stroke="#2f9e44" stroke-width="1" fill="none"></path></g></g><mask></mask><g stroke-linecap="round"><g stroke-opacity="0.5" fill-opacity="0.5" transform="translate(323.2084168680203 140.81493636336904) rotate(0 50.61703333909338 46.732116142433824)"><path d="M0 0 C16.87 15.58, 84.36 77.89, 101.23 93.46 M0 0 C16.87 15.58, 84.36 77.89, 101.23 93.46" stroke="#2f9e44" stroke-width="1" fill="none"></path></g><g stroke-opacity="0.5" fill-opacity="0.5" transform="translate(323.2084168680203 140.81493636336904) rotate(0 50.61703333909338 46.732116142433824)"><path d="M73.56 81.88 C81.04 85.01, 88.52 88.14, 101.23 93.46 M73.56 81.88 C79.65 84.43, 85.73 86.97, 101.23 93.46" stroke="#2f9e44" stroke-width="1" fill="none"></path></g><g stroke-opacity="0.5" fill-opacity="0.5" transform="translate(323.2084168680203 140.81493636336904) rotate(0 50.61703333909338 46.732116142433824)"><path d="M87.48 66.8 C91.2 74.01, 94.91 81.21, 101.23 93.46 M87.48 66.8 C90.51 72.66, 93.53 78.53, 101.23 93.46" stroke="#2f9e44" stroke-width="1" fill="none"></path></g></g><mask></mask><g stroke-linecap="round"><g stroke-opacity="0.6" fill-opacity="0.6" transform="translate(512.2855895027767 50.849318768715875) rotate(0 114.9900273028195 21.754419634699502)"><path d="M0 0 C38.33 7.25, 191.65 36.26, 229.98 43.51 M0 0 C38.33 7.25, 191.65 36.26, 229.98 43.51" stroke="#1971c2" stroke-width="1" fill="none"></path></g><g stroke-opacity="0.6" fill-opacity="0.6" transform="translate(512.2855895027767 50.849318768715875) rotate(0 114.9900273028195 21.754419634699502)"><path d="M200.37 48.35 C210.89 46.63, 221.41 44.91, 229.98 43.51 M200.37 48.35 C208.65 47, 216.92 45.64, 229.98 43.51" stroke="#1971c2" stroke-width="1" fill="none"></path></g><g stroke-opacity="0.6" fill-opacity="0.6" transform="translate(512.2855895027767 50.849318768715875) rotate(0 114.9900273028195 21.754419634699502)"><path d="M204.19 28.19 C213.35 33.63, 222.52 39.08, 229.98 43.51 M204.19 28.19 C211.39 32.47, 218.6 36.75, 229.98 43.51" stroke="#1971c2" stroke-width="1" fill="none"></path></g></g><mask></mask><g stroke-linecap="round"><g stroke-opacity="0.6" fill-opacity="0.6" transform="translate(512.7185945864483 53.357032759443655) rotate(0 113.64492033170177 60.37094111129636)"><path d="M0 0 C37.88 20.12, 189.41 100.62, 227.29 120.74 M0 0 C37.88 20.12, 189.41 100.62, 227.29 120.74" stroke="#1971c2" stroke-width="1" fill="none"></path></g><g stroke-opacity="0.6" fill-opacity="0.6" transform="translate(512.7185945864483 53.357032759443655) rotate(0 113.64492033170177 60.37094111129636)"><path d="M197.58 116.58 C206.73 117.86, 215.89 119.14, 227.29 120.74 M197.58 116.58 C205.84 117.74, 214.11 118.89, 227.29 120.74" stroke="#1971c2" stroke-width="1" fill="none"></path></g><g stroke-opacity="0.6" fill-opacity="0.6" transform="translate(512.7185945864483 53.357032759443655) rotate(0 113.64492033170177 60.37094111129636)"><path d="M207.21 98.46 C213.39 105.32, 219.58 112.19, 227.29 120.74 M207.21 98.46 C212.79 104.65, 218.38 110.85, 227.29 120.74" stroke="#1971c2" stroke-width="1" fill="none"></path></g></g><mask></mask><g stroke-linecap="round"><g stroke-opacity="0.6" fill-opacity="0.6" transform="translate(512.2470267090655 51.61280087341447) rotate(0 114.79929450090822 101.3440930618309)"><path d="M0 0 C38.27 33.78, 191.33 168.91, 229.6 202.69 M0 0 C38.27 33.78, 191.33 168.91, 229.6 202.69" stroke="#1971c2" stroke-width="1" fill="none"></path></g><g stroke-opacity="0.6" fill-opacity="0.6" transform="translate(512.2470267090655 51.61280087341447) rotate(0 114.79929450090822 101.3440930618309)"><path d="M201.67 191.72 C207.87 194.16, 214.07 196.59, 229.6 202.69 M201.67 191.72 C209.05 194.62, 216.42 197.52, 229.6 202.69" stroke="#1971c2" stroke-width="1" fill="none"></path></g><g stroke-opacity="0.6" fill-opacity="0.6" transform="translate(512.2470267090655 51.61280087341447) rotate(0 114.79929450090822 101.3440930618309)"><path d="M215.26 176.34 C218.44 182.19, 221.62 188.04, 229.6 202.69 M215.26 176.34 C219.04 183.3, 222.83 190.26, 229.6 202.69" stroke="#1971c2" stroke-width="1" fill="none"></path></g></g><mask></mask><g stroke-linecap="round"><g stroke-opacity="0.6" fill-opacity="0.6" transform="translate(514.4342716418962 139.94161439839468) rotate(0 114.39894537032364 -18.976919114952125)"><path d="M0 0 C38.13 -6.33, 190.66 -31.63, 228.8 -37.95 M0 0 C38.13 -6.33, 190.66 -31.63, 228.8 -37.95" stroke="#1971c2" stroke-width="1" fill="none"></path></g><g stroke-opacity="0.6" fill-opacity="0.6" transform="translate(514.4342716418962 139.94161439839468) rotate(0 114.39894537032364 -18.976919114952125)"><path d="M202.67 -23.22 C208.39 -26.45, 214.11 -29.67, 228.8 -37.95 M202.67 -23.22 C209.91 -27.3, 217.16 -31.39, 228.8 -37.95" stroke="#1971c2" stroke-width="1" fill="none"></path></g><g stroke-opacity="0.6" fill-opacity="0.6" transform="translate(514.4342716418962 139.94161439839468) rotate(0 114.39894537032364 -18.976919114952125)"><path d="M199.31 -43.46 C205.77 -42.26, 212.23 -41.05, 228.8 -37.95 M199.31 -43.46 C207.49 -41.93, 215.67 -40.41, 228.8 -37.95" stroke="#1971c2" stroke-width="1" fill="none"></path></g></g><mask></mask><g stroke-linecap="round"><g stroke-opacity="0.6" fill-opacity="0.6" transform="translate(518.227687538192 140.96775197581542) rotate(0 111.55200121650387 16.680795500670683)"><path d="M0 0 C37.18 5.56, 185.92 27.8, 223.1 33.36 M0 0 C37.18 5.56, 185.92 27.8, 223.1 33.36" stroke="#1971c2" stroke-width="1" fill="none"></path></g><g stroke-opacity="0.6" fill-opacity="0.6" transform="translate(518.227687538192 140.96775197581542) rotate(0 111.55200121650387 16.680795500670683)"><path d="M193.71 39.34 C199.9 38.08, 206.09 36.82, 223.1 33.36 M193.71 39.34 C202.01 37.65, 210.32 35.96, 223.1 33.36" stroke="#1971c2" stroke-width="1" fill="none"></path></g><g stroke-opacity="0.6" fill-opacity="0.6" transform="translate(518.227687538192 140.96775197581542) rotate(0 111.55200121650387 16.680795500670683)"><path d="M196.74 19.04 C202.29 22.06, 207.84 25.07, 223.1 33.36 M196.74 19.04 C204.19 23.09, 211.64 27.14, 223.1 33.36" stroke="#1971c2" stroke-width="1" fill="none"></path></g></g><mask></mask><g stroke-linecap="round"><g stroke-opacity="0.6" fill-opacity="0.6" transform="translate(518.0501762655529 140.7270711744302) rotate(0 112.32852121812402 56.66367939301449)"><path d="M0 0 C37.44 18.89, 187.21 94.44, 224.66 113.33 M0 0 C37.44 18.89, 187.21 94.44, 224.66 113.33" stroke="#1971c2" stroke-width="1" fill="none"></path></g><g stroke-opacity="0.6" fill-opacity="0.6" transform="translate(518.0501762655529 140.7270711744302) rotate(0 112.32852121812402 56.66367939301449)"><path d="M194.87 109.79 C201.96 110.63, 209.05 111.47, 224.66 113.33 M194.87 109.79 C206.15 111.13, 217.43 112.47, 224.66 113.33" stroke="#1971c2" stroke-width="1" fill="none"></path></g><g stroke-opacity="0.6" fill-opacity="0.6" transform="translate(518.0501762655529 140.7270711744302) rotate(0 112.32852121812402 56.66367939301449)"><path d="M204.11 91.47 C209 96.67, 213.89 101.87, 224.66 113.33 M204.11 91.47 C211.89 99.75, 219.67 108.02, 224.66 113.33" stroke="#1971c2" stroke-width="1" fill="none"></path></g></g><mask></mask><g stroke-linecap="round"><g stroke-opacity="0.6" fill-opacity="0.6" transform="translate(515.9680302482809 224.11485842550405) rotate(0 113.64039073371009 -64.34811178016503)"><path d="M0 0 C37.88 -21.45, 189.4 -107.25, 227.28 -128.7 M0 0 C37.88 -21.45, 189.4 -107.25, 227.28 -128.7" stroke="#1971c2" stroke-width="1" fill="none"></path></g><g stroke-opacity="0.6" fill-opacity="0.6" transform="translate(515.9680302482809 224.11485842550405) rotate(0 113.64039073371009 -64.34811178016503)"><path d="M207.81 -105.88 C213.91 -113.03, 220.01 -120.17, 227.28 -128.7 M207.81 -105.88 C213.8 -112.9, 219.8 -119.93, 227.28 -128.7" stroke="#1971c2" stroke-width="1" fill="none"></path></g><g stroke-opacity="0.6" fill-opacity="0.6" transform="translate(515.9680302482809 224.11485842550405) rotate(0 113.64039073371009 -64.34811178016503)"><path d="M197.69 -123.73 C206.96 -125.29, 216.23 -126.84, 227.28 -128.7 M197.69 -123.73 C206.81 -125.26, 215.92 -126.79, 227.28 -128.7" stroke="#1971c2" stroke-width="1" fill="none"></path></g></g><mask></mask><g stroke-linecap="round"><g stroke-opacity="0.6" fill-opacity="0.6" transform="translate(515.8000678578944 227.77954804374417) rotate(0 112.2777774784629 -26.632888487696846)"><path d="M0 0 C37.43 -8.88, 187.13 -44.39, 224.56 -53.27 M0 0 C37.43 -8.88, 187.13 -44.39, 224.56 -53.27" stroke="#1971c2" stroke-width="1" fill="none"></path></g><g stroke-opacity="0.6" fill-opacity="0.6" transform="translate(515.8000678578944 227.77954804374417) rotate(0 112.2777774784629 -26.632888487696846)"><path d="M199.49 -36.78 C208.5 -42.7, 217.51 -48.63, 224.56 -53.27 M199.49 -36.78 C206.15 -41.15, 212.8 -45.53, 224.56 -53.27" stroke="#1971c2" stroke-width="1" fill="none"></path></g><g stroke-opacity="0.6" fill-opacity="0.6" transform="translate(515.8000678578944 227.77954804374417) rotate(0 112.2777774784629 -26.632888487696846)"><path d="M194.76 -56.74 C205.47 -55.49, 216.18 -54.24, 224.56 -53.27 M194.76 -56.74 C202.67 -55.82, 210.58 -54.9, 224.56 -53.27" stroke="#1971c2" stroke-width="1" fill="none"></path></g></g><mask></mask><g stroke-linecap="round"><g stroke-opacity="0.6" fill-opacity="0.6" transform="translate(517.0609487906843 230.6679318981071) rotate(0 112.59377814915229 14.119139506834927)"><path d="M0 0 C37.53 4.71, 187.66 23.53, 225.19 28.24 M0 0 C37.53 4.71, 187.66 23.53, 225.19 28.24" stroke="#1971c2" stroke-width="1" fill="none"></path></g><g stroke-opacity="0.6" fill-opacity="0.6" transform="translate(517.0609487906843 230.6679318981071) rotate(0 112.59377814915229 14.119139506834927)"><path d="M195.94 34.91 C203.3 33.23, 210.67 31.55, 225.19 28.24 M195.94 34.91 C202.04 33.52, 208.15 32.13, 225.19 28.24" stroke="#1971c2" stroke-width="1" fill="none"></path></g><g stroke-opacity="0.6" fill-opacity="0.6" transform="translate(517.0609487906843 230.6679318981071) rotate(0 112.59377814915229 14.119139506834927)"><path d="M198.49 14.55 C205.21 18, 211.93 21.44, 225.19 28.24 M198.49 14.55 C204.06 17.41, 209.63 20.26, 225.19 28.24" stroke="#1971c2" stroke-width="1" fill="none"></path></g></g><mask></mask><g stroke-linecap="round"><g stroke-opacity="0.6" fill-opacity="0.6" transform="translate(658.9939431085688 467.8645637634379) rotate(0 41.10913170645472 -175.4788387913818)"><path d="M0 0 C13.7 -58.49, 68.52 -292.46, 82.22 -350.96 M0 0 C13.7 -58.49, 68.52 -292.46, 82.22 -350.96" stroke="#1971c2" stroke-width="1" fill="none"></path></g><g stroke-opacity="0.6" fill-opacity="0.6" transform="translate(658.9939431085688 467.8645637634379) rotate(0 41.10913170645472 -175.4788387913818)"><path d="M85.78 -321.17 C84.51 -331.82, 83.23 -342.47, 82.22 -350.96 M85.78 -321.17 C84.83 -329.1, 83.88 -337.04, 82.22 -350.96" stroke="#1971c2" stroke-width="1" fill="none"></path></g><g stroke-opacity="0.6" fill-opacity="0.6" transform="translate(658.9939431085688 467.8645637634379) rotate(0 41.10913170645472 -175.4788387913818)"><path d="M65.8 -325.85 C71.67 -334.83, 77.54 -343.81, 82.22 -350.96 M65.8 -325.85 C70.17 -332.54, 74.55 -339.23, 82.22 -350.96" stroke="#1971c2" stroke-width="1" fill="none"></path></g></g><mask></mask><g stroke-linecap="round"><g stroke-opacity="0.6" fill-opacity="0.6" transform="translate(656.6996405151015 467.3726920908964) rotate(0 40.75453763666246 -133.68894264945084)"><path d="M0 0 C13.58 -44.56, 67.92 -222.81, 81.51 -267.38 M0 0 C13.58 -44.56, 67.92 -222.81, 81.51 -267.38" stroke="#1971c2" stroke-width="1" fill="none"></path></g><g stroke-opacity="0.6" fill-opacity="0.6" transform="translate(656.6996405151015 467.3726920908964) rotate(0 40.75453763666246 -133.68894264945084)"><path d="M83.1 -237.42 C82.5 -248.73, 81.9 -260.05, 81.51 -267.38 M83.1 -237.42 C82.71 -244.86, 82.31 -252.31, 81.51 -267.38" stroke="#1971c2" stroke-width="1" fill="none"></path></g><g stroke-opacity="0.6" fill-opacity="0.6" transform="translate(656.6996405151015 467.3726920908964) rotate(0 40.75453763666246 -133.68894264945084)"><path d="M63.47 -243.4 C70.28 -252.46, 77.1 -261.51, 81.51 -267.38 M63.47 -243.4 C67.96 -249.36, 72.44 -255.32, 81.51 -267.38" stroke="#1971c2" stroke-width="1" fill="none"></path></g></g><mask></mask><g stroke-linecap="round"><g stroke-opacity="0.6" fill-opacity="0.6" transform="translate(658.9332220111698 460.4193688696239) rotate(0 43.983406475182164 -103.58343069300372)"><path d="M0 0 C14.66 -34.53, 73.31 -172.64, 87.97 -207.17 M0 0 C14.66 -34.53, 73.31 -172.64, 87.97 -207.17" stroke="#1971c2" stroke-width="1" fill="none"></path></g><g stroke-opacity="0.6" fill-opacity="0.6" transform="translate(658.9332220111698 460.4193688696239) rotate(0 43.983406475182164 -103.58343069300372)"><path d="M86.39 -177.21 C86.84 -185.78, 87.29 -194.36, 87.97 -207.17 M86.39 -177.21 C86.79 -184.85, 87.2 -192.5, 87.97 -207.17" stroke="#1971c2" stroke-width="1" fill="none"></path></g><g stroke-opacity="0.6" fill-opacity="0.6" transform="translate(658.9332220111698 460.4193688696239) rotate(0 43.983406475182164 -103.58343069300372)"><path d="M67.5 -185.23 C73.36 -191.51, 79.22 -197.79, 87.97 -207.17 M67.5 -185.23 C72.73 -190.83, 77.95 -196.42, 87.97 -207.17" stroke="#1971c2" stroke-width="1" fill="none"></path></g></g><mask></mask><g stroke-linecap="round"><g stroke-opacity="0.6" fill-opacity="0.6" transform="translate(510.8435858611108 54.48881285676475) rotate(0 39.77193884107783 122.55826996622704)"><path d="M0 0 C13.26 40.85, 66.29 204.26, 79.54 245.12 M0 0 C13.26 40.85, 66.29 204.26, 79.54 245.12" stroke="#f08c00" stroke-width="1" fill="none"></path></g><g stroke-opacity="0.6" fill-opacity="0.6" transform="translate(510.8435858611108 54.48881285676475) rotate(0 39.77193884107783 122.55826996622704)"><path d="M61.08 221.47 C67.95 230.27, 74.82 239.06, 79.54 245.12 M61.08 221.47 C68.22 230.61, 75.35 239.74, 79.54 245.12" stroke="#f08c00" stroke-width="1" fill="none"></path></g><g stroke-opacity="0.6" fill-opacity="0.6" transform="translate(510.8435858611108 54.48881285676475) rotate(0 39.77193884107783 122.55826996622704)"><path d="M80.6 215.14 C80.21 226.29, 79.81 237.44, 79.54 245.12 M80.6 215.14 C80.19 226.72, 79.78 238.3, 79.54 245.12" stroke="#f08c00" stroke-width="1" fill="none"></path></g></g><mask></mask><g stroke-linecap="round"><g stroke-opacity="0.6" fill-opacity="0.6" transform="translate(515.5910942424491 147.20255501504948) rotate(0 37.68031062130672 76.50656524906435)"><path d="M0 0 C12.56 25.5, 62.8 127.51, 75.36 153.01 M0 0 C12.56 25.5, 62.8 127.51, 75.36 153.01" stroke="#f08c00" stroke-width="1" fill="none"></path></g><g stroke-opacity="0.6" fill-opacity="0.6" transform="translate(515.5910942424491 147.20255501504948) rotate(0 37.68031062130672 76.50656524906435)"><path d="M53.7 132.26 C61.91 140.12, 70.11 147.98, 75.36 153.01 M53.7 132.26 C61.31 139.54, 68.91 146.83, 75.36 153.01" stroke="#f08c00" stroke-width="1" fill="none"></path></g><g stroke-opacity="0.6" fill-opacity="0.6" transform="translate(515.5910942424491 147.20255501504948) rotate(0 37.68031062130672 76.50656524906435)"><path d="M72.11 123.19 C73.34 134.49, 74.57 145.78, 75.36 153.01 M72.11 123.19 C73.25 133.66, 74.39 144.13, 75.36 153.01" stroke="#f08c00" stroke-width="1" fill="none"></path></g></g><mask></mask><g stroke-linecap="round"><g stroke-opacity="0.6" fill-opacity="0.6" transform="translate(513.1558844249764 243.02061736761948) rotate(0 39.33684215764788 28.311373659128776)"><path d="M0 0 C13.11 9.44, 65.56 47.19, 78.67 56.62 M0 0 C13.11 9.44, 65.56 47.19, 78.67 56.62" stroke="#f08c00" stroke-width="1" fill="none"></path></g><g stroke-opacity="0.6" fill-opacity="0.6" transform="translate(513.1558844249764 243.02061736761948) rotate(0 39.33684215764788 28.311373659128776)"><path d="M49.8 48.48 C59.78 51.3, 69.77 54.11, 78.67 56.62 M49.8 48.48 C60.68 51.55, 71.56 54.62, 78.67 56.62" stroke="#f08c00" stroke-width="1" fill="none"></path></g><g stroke-opacity="0.6" fill-opacity="0.6" transform="translate(513.1558844249764 243.02061736761948) rotate(0 39.33684215764788 28.311373659128776)"><path d="M61.79 31.83 C67.63 40.4, 73.47 48.98, 78.67 56.62 M61.79 31.83 C68.15 41.17, 74.51 50.51, 78.67 56.62" stroke="#f08c00" stroke-width="1" fill="none"></path></g></g><mask></mask><g stroke-linecap="round"><g stroke-opacity="0.5" fill-opacity="0.5" transform="translate(422.0070900963831 45.01849014460754) rotate(0 -35.371060678073945 132.777152404218)"><path d="M0 0 C-11.79 44.26, -58.95 221.3, -70.74 265.55 M0 0 C-11.79 44.26, -58.95 221.3, -70.74 265.55" stroke="#e03131" stroke-width="1" fill="none"></path></g><g stroke-opacity="0.5" fill-opacity="0.5" transform="translate(422.0070900963831 45.01849014460754) rotate(0 -35.371060678073945 132.777152404218)"><path d="M-73.4 235.67 C-72.69 243.71, -71.97 251.74, -70.74 265.55 M-73.4 235.67 C-72.36 247.32, -71.33 258.97, -70.74 265.55" stroke="#e03131" stroke-width="1" fill="none"></path></g><g stroke-opacity="0.5" fill-opacity="0.5" transform="translate(422.0070900963831 45.01849014460754) rotate(0 -35.371060678073945 132.777152404218)"><path d="M-53.57 240.95 C-58.19 247.57, -62.81 254.18, -70.74 265.55 M-53.57 240.95 C-60.26 250.54, -66.96 260.13, -70.74 265.55" stroke="#e03131" stroke-width="1" fill="none"></path></g></g><mask></mask><g stroke-linecap="round"><g stroke-opacity="0.5" fill-opacity="0.5" transform="translate(423.4394081400485 145.25222134031878) rotate(0 -34.96322179961203 81.7820344822851)"><path d="M0 0 C-11.65 27.26, -58.27 136.3, -69.93 163.56 M0 0 C-11.65 27.26, -58.27 136.3, -69.93 163.56" stroke="#e03131" stroke-width="1" fill="none"></path></g><g stroke-opacity="0.5" fill-opacity="0.5" transform="translate(423.4394081400485 145.25222134031878) rotate(0 -34.96322179961203 81.7820344822851)"><path d="M-68.28 133.61 C-68.93 145.48, -69.58 157.34, -69.93 163.56 M-68.28 133.61 C-68.93 145.41, -69.58 157.2, -69.93 163.56" stroke="#e03131" stroke-width="1" fill="none"></path></g><g stroke-opacity="0.5" fill-opacity="0.5" transform="translate(423.4394081400485 145.25222134031878) rotate(0 -34.96322179961203 81.7820344822851)"><path d="M-49.41 141.68 C-57.54 150.35, -65.66 159.02, -69.93 163.56 M-49.41 141.68 C-57.49 150.3, -65.57 158.92, -69.93 163.56" stroke="#e03131" stroke-width="1" fill="none"></path></g></g><mask></mask><g stroke-linecap="round"><g stroke-opacity="0.5" fill-opacity="0.5" transform="translate(423.8766510619737 231.57850739738183) rotate(0 -37.68672043697234 39.44848120481424)"><path d="M0 0 C-12.56 13.15, -62.81 65.75, -75.37 78.9 M0 0 C-12.56 13.15, -62.81 65.75, -75.37 78.9" stroke="#e03131" stroke-width="1" fill="none"></path></g><g stroke-opacity="0.5" fill-opacity="0.5" transform="translate(423.8766510619737 231.57850739738183) rotate(0 -37.68672043697234 39.44848120481424)"><path d="M-63.32 51.43 C-66.23 58.06, -69.14 64.69, -75.37 78.9 M-63.32 51.43 C-67.52 60.99, -71.71 70.55, -75.37 78.9" stroke="#e03131" stroke-width="1" fill="none"></path></g><g stroke-opacity="0.5" fill-opacity="0.5" transform="translate(423.8766510619737 231.57850739738183) rotate(0 -37.68672043697234 39.44848120481424)"><path d="M-48.48 65.6 C-54.98 68.81, -61.47 72.02, -75.37 78.9 M-48.48 65.6 C-57.84 70.23, -67.21 74.86, -75.37 78.9" stroke="#e03131" stroke-width="1" fill="none"></path></g></g><mask></mask><g stroke-linecap="round"><g stroke-opacity="0.5" fill-opacity="0.5" transform="translate(566.9412960541438 465.87863816358754) rotate(0 -85.78373729157443 -36.106136854150236)"><path d="M-0.83 0.41 C-29.55 -11.73, -143.2 -60.54, -171.54 -72.62 M0.94 -0.42 C-28.01 -12.45, -143.79 -59.78, -172.5 -71.54" stroke="#e03131" stroke-width="1" fill="none"></path></g><g stroke-opacity="0.5" fill-opacity="0.5" transform="translate(566.9412960541438 465.87863816358754) rotate(0 -85.78373729157443 -36.106136854150236)"><path d="M-141.84 -70.41 C-154.92 -69.95, -165.01 -71.68, -173.55 -70.73 M-143.29 -69.41 C-151.15 -71.66, -158.65 -70.13, -173.4 -71.52" stroke="#e03131" stroke-width="1" fill="none"></path></g><g stroke-opacity="0.5" fill-opacity="0.5" transform="translate(566.9412960541438 465.87863816358754) rotate(0 -85.78373729157443 -36.106136854150236)"><path d="M-149.61 -51.42 C-159.89 -57.85, -167.14 -66.52, -173.55 -70.73 M-151.06 -50.42 C-156.76 -57.62, -162.22 -61.07, -173.4 -71.52" stroke="#e03131" stroke-width="1" fill="none"></path></g></g><mask></mask><g stroke-linecap="round" transform="translate(544.9900066636758 301.7251778102943) rotate(0 51 30.5)"><path d="M15.25 0 M15.25 0 C40.74 -1.6, 69.43 -1.99, 86.75 0 M15.25 0 C34.62 -1.29, 53.26 -0.62, 86.75 0 M86.75 0 C97.51 -0.55, 102.84 4.45, 102 15.25 M86.75 0 C96.17 2.05, 101.25 5.52, 102 15.25 M102 15.25 C102.62 24.51, 101.53 36.11, 102 45.75 M102 15.25 C101.71 26.11, 101.59 36.1, 102 45.75 M102 45.75 C100.22 53.98, 95.44 61.71, 86.75 61 M102 45.75 C99.87 57.43, 96.43 61.01, 86.75 61 M86.75 61 C69.85 59.77, 57.29 63.05, 15.25 61 M86.75 61 C64.83 61.96, 42.16 62.1, 15.25 61 M15.25 61 C4.71 62.18, 0.66 54.93, 0 45.75 M15.25 61 C4.23 59.82, -0.2 55.92, 0 45.75 M0 45.75 C-0.2 33.03, -1.96 22.7, 0 15.25 M0 45.75 C0.09 36.87, -0.23 28.17, 0 15.25 M0 15.25 C-0.08 7.01, 6.1 -1.28, 15.25 0 M0 15.25 C-1.57 5.08, 4.87 2.06, 15.25 0" stroke="#1e1e1e" stroke-width="1" fill="none"></path></g><g transform="translate(552.3100445054727 319.7251778102943) rotate(0 43.679962158203125 12.5)"><text x="43.679962158203125" y="0" font-family="Virgil, Segoe UI Emoji" font-size="20px" fill="#1e1e1e" text-anchor="middle" style="white-space: pre;" direction="ltr" dominant-baseline="text-before-edge">rabbitMQ</text></g><g stroke-linecap="round"><g stroke-opacity="0.6" fill-opacity="0.6" transform="translate(594.6268551423893 363.7251778102943) rotate(0 7.794273758012878 42.89192443497609)"><path d="M0 0 C2.6 14.3, 12.99 71.49, 15.59 85.78 M0 0 C2.6 14.3, 12.99 71.49, 15.59 85.78" stroke="#f08c00" stroke-width="1" fill="none"></path></g><g stroke-opacity="0.6" fill-opacity="0.6" transform="translate(594.6268551423893 363.7251778102943) rotate(0 7.794273758012878 42.89192443497609)"><path d="M15.14 25.9 C12.02 20.58, 8.91 15.25, 0 0 M15.14 25.9 C9.58 16.39, 4.02 6.88, 0 0" stroke="#f08c00" stroke-width="1" fill="none"></path></g><g stroke-opacity="0.6" fill-opacity="0.6" transform="translate(594.6268551423893 363.7251778102943) rotate(0 7.794273758012878 42.89192443497609)"><path d="M-5.06 29.57 C-4.02 23.49, -2.98 17.41, 0 0 M-5.06 29.57 C-3.2 18.71, -1.34 7.85, 0 0" stroke="#f08c00" stroke-width="1" fill="none"></path></g><g stroke-opacity="0.6" fill-opacity="0.6" transform="translate(594.6268551423893 363.7251778102943) rotate(0 7.794273758012878 42.89192443497609)"><path d="M0.45 59.88 C3.56 65.21, 6.68 70.53, 15.59 85.78 M0.45 59.88 C6.01 69.39, 11.57 78.9, 15.59 85.78" stroke="#f08c00" stroke-width="1" fill="none"></path></g><g stroke-opacity="0.6" fill-opacity="0.6" transform="translate(594.6268551423893 363.7251778102943) rotate(0 7.794273758012878 42.89192443497609)"><path d="M20.64 56.21 C19.6 62.29, 18.56 68.37, 15.59 85.78 M20.64 56.21 C18.79 67.07, 16.93 77.93, 15.59 85.78" stroke="#f08c00" stroke-width="1" fill="none"></path></g></g><mask></mask><g stroke-linecap="round"><g transform="translate(118.38202724571875 217.43904402352996) rotate(0 41.25981022665064 -38.6039053222446)"><path d="M0.89 -0.86 C14.46 -13.64, 68.77 -63.85, 82.62 -76.8 M-0.1 1.31 C13.19 -11.81, 67.56 -65.34, 81.53 -78.52" stroke="#c2255c" stroke-width="1" fill="none"></path></g><g transform="translate(118.38202724571875 217.43904402352996) rotate(0 41.25981022665064 -38.6039053222446)"><path d="M66.97 -51.98 C74.96 -60.62, 77.27 -71.72, 80.21 -78.11 M68.88 -50.81 C73.78 -61.89, 79.74 -73.08, 81.61 -77.88" stroke="#c2255c" stroke-width="1" fill="none"></path></g><g transform="translate(118.38202724571875 217.43904402352996) rotate(0 41.25981022665064 -38.6039053222446)"><path d="M52.71 -66.73 C66.39 -69.59, 74.39 -74.79, 80.21 -78.11 M54.62 -65.57 C65.17 -70.85, 76.81 -76.16, 81.61 -77.88" stroke="#c2255c" stroke-width="1" fill="none"></path></g></g><mask></mask></svg>